<?xml version="1.0" standalone="no"?>
<!DOCTYPE svg PUBLIC "-//W3C//DTD SVG 20010904//EN"
 "http://www.w3.org/TR/2001/REC-SVG-20010904/DTD/svg10.dtd">
<svg version="1.0" xmlns="http://www.w3.org/2000/svg"
 width="40.000000pt" height="40.000000pt" viewBox="0 0 500.000000 550.000000"
 preserveAspectRatio="xMidYMid meet">
<g transform="translate(0.000000,500.000000) scale(0.100000,-0.100000)"
fill="#FFFFFF" stroke="none">
<path d="M2643 4592 c-103 -97 -103 -96 -41 -178 62 -84 96 -155 110 -231 22
-119 -23 -230 -183 -450 -56 -76 -119 -168 -140 -206 -22 -37 -50 -73 -62 -81
-13 -8 -66 -17 -127 -20 -502 -32 -794 -136 -882 -314 -21 -43 -23 -60 -22
-187 3 -409 149 -806 396 -1074 l47 -51 -119 0 c-130 0 -204 -12 -265 -42
-273 -137 -381 -587 -218 -913 73 -144 206 -249 336 -263 l62 -7 3 -60 c3 -59
14 -85 36 -85 6 0 86 43 176 96 91 53 176 97 190 97 14 0 86 -36 161 -81 183
-109 204 -119 224 -102 13 11 15 54 15 314 0 245 3 306 14 322 14 18 32 19
448 22 238 1 443 0 455 -3 30 -7 40 -29 63 -137 l19 -93 -21 -17 c-18 -17 -54
-18 -424 -18 -468 0 -424 13 -424 -123 0 -69 3 -87 18 -100 17 -15 73 -17 605
-17 574 0 587 0 607 20 16 16 20 33 20 80 0 55 -3 63 -43 112 -103 127 -117
167 -124 338 -8 190 21 293 113 405 l49 60 0 83 c0 71 -3 86 -19 98 -16 11
-79 14 -340 14 l-320 0 35 38 c20 20 57 64 84 97 55 69 77 84 125 85 137 2
292 71 401 180 197 196 224 457 62 600 -44 38 -145 80 -195 80 -10 0 -30 11
-43 24 -21 21 -23 32 -22 102 1 70 -2 85 -26 127 -52 89 -173 163 -344 211
-89 25 -239 56 -274 56 -54 0 -160 -220 -118 -246 7 -4 54 -13 103 -20 148
-21 293 -75 284 -107 -6 -21 -130 -75 -211 -91 -260 -54 -787 -42 -1084 23
-109 24 -153 44 -153 71 0 39 118 74 353 105 223 29 257 21 257 -61 0 -71 20
-84 134 -84 52 0 107 4 121 10 26 10 26 11 20 77 -14 144 35 260 220 518 184
257 239 379 239 535 0 101 -20 174 -75 281 -49 93 -167 243 -194 246 -13 2
-46 -22 -92 -65z m-918 -1897 c392 -88 954 -85 1348 5 111 26 132 19 124 -44
-18 -127 -102 -344 -188 -483 -64 -102 -200 -244 -280 -291 -115 -67 -256 -99
-400 -88 -204 14 -363 107 -504 294 -161 214 -308 632 -222 632 7 0 62 -11
122 -25z m1847 -115 c58 -72 -17 -204 -161 -283 -59 -33 -61 -29 -31 59 12 32
28 86 36 119 8 33 20 77 25 99 l10 38 52 -5 c37 -3 56 -11 69 -27z m-222
-1040 c0 -38 -51 -195 -67 -207 -13 -10 -201 -13 -859 -13 -787 0 -843 -1
-863 -17 -20 -17 -21 -28 -23 -238 l-3 -220 -28 -3 c-35 -4 -88 34 -122 88
-86 137 -90 371 -8 522 29 53 45 70 88 92 27 14 136 16 958 16 918 0 927 0
927 -20z"/>
<path d="M2191 4358 c-28 -35 -58 -77 -67 -94 -17 -31 -17 -32 9 -66 77 -101
71 -144 -46 -290 -82 -103 -127 -180 -127 -218 0 -16 15 -24 83 -44 140 -42
131 -42 163 1 16 21 67 85 113 142 109 137 141 203 141 297 0 61 -5 81 -35
141 -39 79 -137 193 -166 193 -11 0 -39 -25 -68 -62z"/>
</g>
</svg>
